<?xml version="1.0" encoding="UTF-8" standalone="no"?>
<svg
   width="1024"
   height="541"
   viewBox="0 0 1024 541"
   role="img"
   aria-labelledby="title desc"
   version="1.1"
   id="svg112"
   sodipodi:docname="cover_4.svg"
   inkscape:version="1.4.2 (f4327f4, 2025-05-13)"
   xml:space="preserve"
   xmlns:inkscape="http://www.inkscape.org/namespaces/inkscape"
   xmlns:sodipodi="http://sodipodi.sourceforge.net/DTD/sodipodi-0.dtd"
   xmlns:xlink="http://www.w3.org/1999/xlink"
   xmlns="http://www.w3.org/2000/svg"
   xmlns:svg="http://www.w3.org/2000/svg"
   xmlns:rdf="http://www.w3.org/1999/02/22-rdf-syntax-ns#"
   xmlns:cc="http://creativecommons.org/ns#"
   xmlns:dc="http://purl.org/dc/elements/1.1/"><sodipodi:namedview
     id="namedview112"
     pagecolor="#ffffff"
     bordercolor="#000000"
     borderopacity="0.25"
     inkscape:showpageshadow="2"
     inkscape:pageopacity="0.0"
     inkscape:pagecheckerboard="0"
     inkscape:deskcolor="#d1d1d1"
     showgrid="false"
     inkscape:zoom="1.0012742"
     inkscape:cx="194.25248"
     inkscape:cy="417.96741"
     inkscape:window-width="2494"
     inkscape:window-height="1417"
     inkscape:window-x="1978"
     inkscape:window-y="-8"
     inkscape:window-maximized="1"
     inkscape:current-layer="g32"><inkscape:grid
       id="grid1"
       units="px"
       originx="0"
       originy="0"
       spacingx="1"
       spacingy="1"
       empcolor="#0099e5"
       empopacity="0.30196078"
       color="#0099e5"
       opacity="0.14901961"
       empspacing="5"
       enabled="true"
       visible="false" /></sodipodi:namedview><title
     id="title">Saiora cover</title><desc
     id="desc">Gradient background with geometric polygons and Saiora wordmark</desc><defs
     id="defs12"><linearGradient
       id="bg"
       x1="0%"
       y1="0%"
       x2="100%"
       y2="100%"><stop
         offset="0%"
         stop-color="#e0f2ff"
         id="stop1" /><stop
         offset="45%"
         stop-color="#ecfeff"
         id="stop2" /><stop
         offset="78%"
         stop-color="#ffffff"
         id="stop3" /><stop
         offset="100%"
         stop-color="#f1f4f9"
         id="stop4" /></linearGradient><linearGradient
       id="polyA"
       x1="0%"
       y1="0%"
       x2="100%"
       y2="100%"><stop
         offset="0%"
         stop-color="#9af0e7"
         id="stop5" /><stop
         offset="100%"
         stop-color="#8cc3f1"
         id="stop6" /></linearGradient><linearGradient
       id="polyB"
       x1="100%"
       y1="0%"
       x2="0%"
       y2="100%"><stop
         offset="0%"
         stop-color="#8cc3f1"
         id="stop7" /><stop
         offset="100%"
         stop-color="#9af0e7"
         id="stop8" /></linearGradient><linearGradient
       id="polyC"
       x1="20%"
       y1="0%"
       x2="80%"
       y2="100%"><stop
         offset="0%"
         stop-color="#7fb3ec"
         id="stop9" /><stop
         offset="100%"
         stop-color="#69ddd1"
         id="stop10" /></linearGradient><linearGradient
       id="pcbStroke"
       x1="0%"
       y1="0%"
       x2="100%"
       y2="100%"><stop
         offset="0%"
         stop-color="#aeb7c2"
         id="stop11" /><stop
         offset="100%"
         stop-color="#c5ccd4"
         id="stop12" /></linearGradient><linearGradient
       inkscape:collect="always"
       xlink:href="#polyA"
       id="linearGradient112"
       x1="774.31045"
       y1="93.192595"
       x2="1000.9379"
       y2="319.82004"
       gradientTransform="scale(1.0590068,0.94428103)"
       gradientUnits="userSpaceOnUse" /></defs><rect
     width="100%"
     height="100%"
     fill="url(#bg)"
     id="rect12" /><polygon
     points="86,34 236,28 208,146 68,174 20,96"
     fill="url(#polyA)"
     opacity="0.44"
     id="polygon12" /><polygon
     points="-18,352 104,320 220,376 258,526 86,541 -12,488"
     fill="url(#polyB)"
     opacity="0.62"
     id="polygon13" /><polygon
     points="96,422 184,398 318,476 274,541 126,541"
     fill="url(#polyC)"
     opacity="0.54"
     id="polygon14" /><polygon
     points="738,-22 944,-10 1062,138 910,252 726,158 674,44"
     fill="url(#polyC)"
     opacity="0.56"
     id="polygon15" /><polygon
     points="860,88 1060,118 1060,276 942,302 820,220 "
     fill="url(#polyA)"
     opacity="0.57"
     id="polygon16"
     style="fill:url(#linearGradient112)"
     transform="translate(-17.300038,1.300049)" /><polygon
     points="930,332 1060,312 1060,541 888,541 816,448"
     fill="url(#polyB)"
     opacity="0.56"
     id="polygon17" /><polygon
     points="566,86 428,62 462,-28 610,-4 "
     fill="url(#polyA)"
     opacity="0.45"
     id="polygon18"
     style="display:inline" /><g
     opacity="0.48"
     id="g112"><g
       fill="#9dacc0"
       stroke="#77889f"
       stroke-width="1.4"
       stroke-linejoin="round"
       id="g94"><polygon
         points="720,24 790,42 758,98"
         opacity="0.20"
         id="polygon74" /><polygon
         points="790,42 826,94 758,98"
         opacity="0.16"
         id="polygon75" /><polygon
         points="790,42 856,34 826,94"
         opacity="0.17"
         id="polygon76" /><polygon
         points="856,34 890,108 826,94"
         opacity="0.16"
         id="polygon77" /><polygon
         points="856,34 922,50 890,108"
         opacity="0.18"
         id="polygon78" /><polygon
         points="922,50 950,128 890,108"
         opacity="0.15"
         id="polygon79" /><polygon
         points="922,50 988,78 950,128"
         opacity="0.14"
         id="polygon80" /><polygon
         points="988,78 1006,154 950,128"
         opacity="0.13"
         id="polygon81" /><polygon
         points="988,78 1044,102 1006,154"
         opacity="0.13"
         id="polygon82" /><polygon
         points="758,98 826,94 794,150"
         opacity="0.20"
         id="polygon83" /><polygon
         points="826,94 858,164 794,150"
         opacity="0.17"
         id="polygon84" /><polygon
         points="826,94 890,108 858,164"
         opacity="0.17"
         id="polygon85" /><polygon
         points="890,108 918,182 858,164"
         opacity="0.16"
         id="polygon86" /><polygon
         points="890,108 950,128 918,182"
         opacity="0.16"
         id="polygon87" /><polygon
         points="950,128 970,206 918,182"
         opacity="0.14"
         id="polygon88" /><polygon
         points="950,128 1006,154 970,206"
         opacity="0.14"
         id="polygon89" /><polygon
         points="794,150 858,164 824,216"
         opacity="0.18"
         id="polygon90" /><polygon
         points="858,164 884,230 824,216"
         opacity="0.15"
         id="polygon91" /><polygon
         points="858,164 918,182 884,230"
         opacity="0.15"
         id="polygon92" /><polygon
         points="918,182 944,248 884,230"
         opacity="0.14"
         id="polygon93" /><polygon
         points="918,182 970,206 944,248"
         opacity="0.14"
         id="polygon94" /></g><g
       fill="#8f9fb3"
       id="g111"><circle
         cx="720"
         cy="24"
         r="2.3"
         id="circle94" /><circle
         cx="790"
         cy="42"
         r="2.3"
         id="circle95" /><circle
         cx="856"
         cy="34"
         r="2.3"
         id="circle96" /><circle
         cx="922"
         cy="50"
         r="2.3"
         id="circle97" /><circle
         cx="988"
         cy="78"
         r="2.3"
         id="circle98" /><circle
         cx="1044"
         cy="102"
         r="2.3"
         id="circle99" /><circle
         cx="758"
         cy="98"
         r="2.3"
         id="circle100" /><circle
         cx="826"
         cy="94"
         r="2.3"
         id="circle101" /><circle
         cx="890"
         cy="108"
         r="2.3"
         id="circle102" /><circle
         cx="950"
         cy="128"
         r="2.3"
         id="circle103" /><circle
         cx="1006"
         cy="154"
         r="2.3"
         id="circle104" /><circle
         cx="794"
         cy="150"
         r="2.3"
         id="circle105" /><circle
         cx="858"
         cy="164"
         r="2.3"
         id="circle106" /><circle
         cx="918"
         cy="182"
         r="2.3"
         id="circle107" /><circle
         cx="970"
         cy="206"
         r="2.3"
         id="circle108" /><circle
         cx="824"
         cy="216"
         r="2.3"
         id="circle109" /><circle
         cx="884"
         cy="230"
         r="2.3"
         id="circle110" /><circle
         cx="944"
         cy="248"
         r="2.3"
         id="circle111" /></g></g><path
     fill="#0069a8"
     d="M297 703Q348 703 408.0 697.5Q468 692 525 675L515 574Q471 575 412.0 576.0Q353 577 296 577Q268 577 248.5 575.5Q229 574 217.0 567.5Q205 561 200.0 548.0Q195 535 195 512Q195 477 211.5 461.0Q228 445 268 432L401 389Q484 361 516.0 313.0Q548 265 548 187Q548 128 534.0 89.0Q520 50 490.0 28.0Q460 6 411.0 -3.5Q362 -13 291 -13Q257 -13 194.0 -8.5Q131 -4 50 14L60 122Q119 121 162.5 119.5Q206 118 237.0 117.5Q268 117 291 117Q331 117 353.5 122.0Q376 127 385.0 142.0Q394 157 394 185Q394 209 387.5 223.5Q381 238 366.5 246.5Q352 255 327 262L187 310Q108 339 75.0 386.0Q42 433 42 510Q42 570 56.5 607.5Q71 645 101.5 666.0Q132 687 180.5 695.0Q229 703 297 703ZM907 507Q969 507 1012.0 490.5Q1055 474 1077.5 434.5Q1100 395 1100 326V0H982L961 107L951 122V327Q951 362 934.5 378.0Q918 394 872 394Q834 394 777.0 391.5Q720 389 660 385L646 483Q682 490 729.0 495.0Q776 500 823.0 503.5Q870 507 907 507ZM1039 304 1038 221 818 220Q791 220 779.5 207.0Q768 194 768 172V148Q768 123 782.0 109.5Q796 96 827 96Q853 96 883.5 107.0Q914 118 944.0 138.0Q974 158 997 185V121Q988 106 970.5 83.5Q953 61 926.0 39.5Q899 18 863.0 3.0Q827 -12 781 -12Q736 -12 700.0 4.0Q664 20 643.0 51.0Q622 82 622 128V179Q622 238 662.0 271.0Q702 304 772 304ZM1367 494V0H1220V494ZM1326 712Q1370 712 1370 667V614Q1370 569 1326 569H1262Q1218 569 1218 614V667Q1218 712 1262 712ZM1727 507Q1820 507 1876.0 481.5Q1932 456 1956.5 399.0Q1981 342 1981 246Q1981 152 1956.5 95.0Q1932 38 1876.0 13.0Q1820 -12 1727 -12Q1635 -12 1578.5 13.0Q1522 38 1497.0 95.0Q1472 152 1472 246Q1472 342 1497.0 399.0Q1522 456 1578.5 481.5Q1635 507 1727 507ZM1727 399Q1689 399 1667.0 386.0Q1645 373 1636.0 340.0Q1627 307 1627 246Q1627 186 1636.0 153.0Q1645 120 1667.0 107.5Q1689 95 1727 95Q1765 95 1787.0 107.5Q1809 120 1818.0 153.0Q1827 186 1827 246Q1827 307 1818.0 340.0Q1809 373 1787.0 386.0Q1765 399 1727 399ZM2198 494 2216 396 2230 383V0H2082V494ZM2439 507 2425 370H2384Q2349 370 2311.0 360.0Q2273 350 2215 330L2205 413Q2257 459 2310.0 483.0Q2363 507 2413 507ZM2767 507Q2829 507 2872.0 490.5Q2915 474 2937.5 434.5Q2960 395 2960 326V0H2842L2821 107L2811 122V327Q2811 362 2794.5 378.0Q2778 394 2732 394Q2694 394 2637.0 391.5Q2580 389 2520 385L2506 483Q2542 490 2589.0 495.0Q2636 500 2683.0 503.5Q2730 507 2767 507ZM2899 304 2898 221 2678 220Q2651 220 2639.5 207.0Q2628 194 2628 172V148Q2628 123 2642.0 109.5Q2656 96 2687 96Q2713 96 2743.5 107.0Q2774 118 2804.0 138.0Q2834 158 2857 185V121Q2848 106 2830.5 83.5Q2813 61 2786.0 39.5Q2759 18 2723.0 3.0Q2687 -12 2641 -12Q2596 -12 2560.0 4.0Q2524 20 2503.0 51.0Q2482 82 2482 128V179Q2482 238 2522.0 271.0Q2562 304 2632 304Z"
     transform="matrix(0.158 0 0 -0.158 273.736 340)"
     id="path112" /><text
     x="512"
     y="402"
     text-anchor="middle"
     fill="#0069a8"
     font-family="'Segoe UI', Arial, sans-serif"
     font-size="30"
     font-weight="500"
     letter-spacing="0.5"
     id="text112">
    AI Solutions For Business
  </text><metadata
     id="metadata1"><rdf:RDF><cc:Work
         rdf:about=""><dc:title>Saiora cover</dc:title></cc:Work></rdf:RDF></metadata><text
     xml:space="preserve"
     style="font-weight:300;font-size:14.6667px;line-height:125%;font-family:Calibri;-inkscape-font-specification:'Calibri Light';text-align:start;text-decoration-color:#000000;letter-spacing:0px;word-spacing:0px;writing-mode:lr-tb;direction:ltr;text-anchor:start;fill:#75e8e0;fill-opacity:1;stroke:#000000;stroke-width:2.64567;stroke-dasharray:none;stroke-opacity:1"
     x="-38.614674"
     y="460"
     id="text14"><tspan
       sodipodi:role="line"
       id="tspan14"
       x="-38.614674"
       y="460" /><tspan
       sodipodi:role="line"
       x="-38.614674"
       y="478.33337"
       id="tspan15" /></text><text
     xml:space="preserve"
     style="font-style:normal;font-variant:normal;font-weight:normal;font-stretch:normal;font-size:14.6667px;line-height:125%;font-family:'Courier New';-inkscape-font-specification:'Courier New';text-align:start;text-decoration-color:#000000;letter-spacing:0px;word-spacing:0px;writing-mode:lr-tb;direction:ltr;text-anchor:start;fill:#75e8e0;fill-opacity:1;stroke:#000000;stroke-width:1.13386;stroke-dasharray:none;stroke-opacity:1"
     x="200"
     y="610"
     id="text21"><tspan
       sodipodi:role="line"
       id="tspan21"
       x="200"
       y="610" /></text><g
     id="g32"
     style="stroke:#92b8c2;stroke-opacity:0.5"><path
       style="fill:none;stroke:#92b8c2;stroke-width:2.64567;stroke-dasharray:none;stroke-opacity:0.40000001"
       d="m -1,484 h 95 l 5,5 h 15 l 10,-10 h 20 l 10,10 h 5 l 10,-10 h 20 l 10,10 h 10 l 10,-10 h 30"
       id="path4" /><path
       style="fill:none;stroke:#92b8c2;stroke-width:2.64567;stroke-dasharray:none;stroke-opacity:0.40000001"
       d="m -1,424 h 120 l 10,-10 h 45 l 10,10 h 15 l 10,-10 h 25 l 10,10 h 5 v 0"
       id="path5" /><path
       style="fill:none;stroke:#92b8c2;stroke-width:2.64567;stroke-dasharray:none;stroke-opacity:0.40000001"
       d="m -1,414 h 115 l 10,-10 h 55 l 10,10 h 5 l 10,-10 h 45"
       id="path6" /><rect
       style="fill:#92b8c2;fill-opacity:0.40470588;stroke:#92b8c2;stroke-width:2.64567;stroke-dasharray:none;stroke-opacity:0.40000001"
       id="rect6"
       width="15"
       height="10"
       x="249"
       y="419" /><rect
       style="fill:#92b8c2;fill-opacity:0.40470588;stroke:#92b8c2;stroke-width:2.64567;stroke-dasharray:none;stroke-opacity:0.40000001"
       id="rect7"
       width="15"
       height="10"
       x="249"
       y="399" /><rect
       style="fill:#92b8c2;fill-opacity:0.40470588;stroke:#92b8c2;stroke-width:2.64567;stroke-dasharray:none;stroke-opacity:0.40000001"
       id="rect8"
       width="15"
       height="10"
       x="249"
       y="474" /><circle
       style="fill:none;fill-opacity:1;stroke:#92b8c2;stroke-width:2.64567;stroke-dasharray:none;stroke-opacity:0.40000001"
       id="path9"
       cx="159"
       cy="444"
       r="5" /><circle
       style="fill:none;fill-opacity:1;stroke:#92b8c2;stroke-width:2.64567;stroke-dasharray:none;stroke-opacity:0.40000001"
       id="path10"
       cx="214"
       cy="449"
       r="5" /><circle
       style="fill:none;stroke:#92b8c2;stroke-width:2.64567;stroke-dasharray:none;stroke-opacity:0.40000001"
       id="path11"
       cx="279"
       cy="424"
       r="5" /><circle
       style="fill:none;stroke:#92b8c2;stroke-width:2.64567;stroke-dasharray:none;stroke-opacity:0.40000001"
       id="path12"
       cx="279"
       cy="404"
       r="5" /><rect
       style="fill:#92b8c2;fill-opacity:0.40470588;stroke:#92b8c2;stroke-width:2.64567;stroke-dasharray:none;stroke-opacity:0.40000001"
       id="rect13"
       width="15"
       height="10"
       x="249"
       y="494" /><path
       style="fill:none;stroke:#92b8c2;stroke-width:2.64567;stroke-dasharray:none;stroke-opacity:0.40000001"
       d="m -1,494 h 90 l 5,5 h 25 l 10,-10 h 10 l 10,10 h 15 l 10,-10 h 10 l 10,10 h 55"
       id="path13" /><circle
       style="fill:none;fill-opacity:1;stroke:#92b8c2;stroke-width:2.64567;stroke-dasharray:none;stroke-opacity:0.40000001"
       id="path14"
       cx="259"
       cy="384"
       r="5" /><text
       xml:space="preserve"
       style="font-weight:300;font-size:14.6667px;line-height:125%;font-family:Calibri;-inkscape-font-specification:'Calibri Light';text-align:start;text-decoration-color:#000000;letter-spacing:0px;word-spacing:0px;writing-mode:lr-tb;direction:ltr;text-anchor:start;fill:#92b8c2;fill-opacity:0.60000002;stroke:#92b8c2;stroke-width:1.13386;stroke-dasharray:none;stroke-opacity:0.40000001"
       x="4"
       y="404"
       id="text16"><tspan
         sodipodi:role="line"
         id="tspan16"
         x="4"
         y="404"
         style="font-style:normal;font-variant:normal;font-weight:normal;font-stretch:normal;font-family:'Courier New';-inkscape-font-specification:'Courier New';stroke-width:1.13386;stroke-dasharray:none;stroke:#92b8c2;stroke-opacity:0.40000001;fill:#92b8c2;fill-opacity:0.60000002">DIFF_P</tspan></text><text
       xml:space="preserve"
       style="font-style:normal;font-variant:normal;font-weight:normal;font-stretch:normal;font-size:14.6667px;line-height:125%;font-family:'Courier New';-inkscape-font-specification:'Courier New';text-align:start;text-decoration-color:#000000;letter-spacing:0px;word-spacing:0px;writing-mode:lr-tb;direction:ltr;text-anchor:start;fill:#92b8c2;fill-opacity:0.60000002;stroke:#92b8c2;stroke-width:1.13386;stroke-dasharray:none;stroke-opacity:0.40000001"
       x="4"
       y="439"
       id="text17"><tspan
         sodipodi:role="line"
         id="tspan17"
         x="4"
         y="439">DIFF_N</tspan></text><text
       xml:space="preserve"
       style="font-style:normal;font-variant:normal;font-weight:normal;font-stretch:normal;font-size:14.6667px;line-height:125%;font-family:'Courier New';-inkscape-font-specification:'Courier New';text-align:start;text-decoration-color:#000000;letter-spacing:0px;word-spacing:0px;writing-mode:lr-tb;direction:ltr;text-anchor:start;fill:#92b8c2;fill-opacity:0.60000002;stroke:#92b8c2;stroke-width:1.13386;stroke-dasharray:none;stroke-opacity:0.40000001"
       x="4"
       y="474"
       id="text18"><tspan
         sodipodi:role="line"
         id="tspan18"
         x="4"
         y="474">SS_TX+</tspan></text><text
       xml:space="preserve"
       style="font-style:normal;font-variant:normal;font-weight:normal;font-stretch:normal;font-size:14.6667px;line-height:125%;font-family:'Courier New';-inkscape-font-specification:'Courier New';text-align:start;text-decoration-color:#000000;letter-spacing:0px;word-spacing:0px;writing-mode:lr-tb;direction:ltr;text-anchor:start;fill:#92b8c2;fill-opacity:0.60000002;stroke:#92b8c2;stroke-width:1.13386;stroke-dasharray:none;stroke-opacity:0.40000001"
       x="4"
       y="509"
       id="text19"><tspan
         sodipodi:role="line"
         id="tspan19"
         x="4"
         y="509">SS_TX-</tspan></text><text
       xml:space="preserve"
       style="font-style:normal;font-variant:normal;font-weight:normal;font-stretch:normal;font-size:14.6667px;line-height:125%;font-family:'Courier New';-inkscape-font-specification:'Courier New';text-align:start;text-decoration-color:#000000;letter-spacing:0px;word-spacing:0px;writing-mode:lr-tb;direction:ltr;text-anchor:start;fill:#92b8c2;fill-opacity:0.60000002;stroke:#92b8c2;stroke-width:1.13386;stroke-dasharray:none;stroke-opacity:0.40000001"
       x="4"
       y="534"
       id="text20"><tspan
         sodipodi:role="line"
         id="tspan20"
         x="4"
         y="534">GND</tspan></text><text
       xml:space="preserve"
       style="font-style:normal;font-variant:normal;font-weight:normal;font-stretch:normal;font-size:14.6667px;line-height:125%;font-family:'Courier New';-inkscape-font-specification:'Courier New';text-align:start;text-decoration-color:#000000;letter-spacing:0px;word-spacing:0px;writing-mode:lr-tb;direction:ltr;text-anchor:start;fill:#92b8c2;fill-opacity:0.60000002;stroke:#92b8c2;stroke-width:1.13386;stroke-dasharray:none;stroke-opacity:0.40000001"
       x="194"
       y="534"
       id="text22"><tspan
         sodipodi:role="line"
         id="tspan22"
         x="194"
         y="534">100 Om DIFF</tspan></text><circle
       style="fill:none;fill-opacity:1;stroke:#92b8c2;stroke-width:2.64567;stroke-dasharray:none;stroke-opacity:0.40000001"
       id="path26"
       cx="279"
       cy="479"
       r="5" /><circle
       style="fill:none;fill-opacity:1;stroke:#92b8c2;stroke-width:2.64567;stroke-dasharray:none;stroke-opacity:0.40000001"
       id="path27"
       cx="279"
       cy="499"
       r="5" /></g></svg>
