<svg xmlns="http://www.w3.org/2000/svg" viewBox="0 0 128 128">
  <rect fill="#0069a8" x="8" y="8" width="112" height="112" rx="28" ry="28" />
  <path
    fill="#ffffff"
    transform="matrix(0.115 0 0 -0.115 30.075 103.675)"
    d="M297 703Q348 703 408.0 697.5Q468 692 525 675L515 574Q471 575 412.0 576.0Q353 577 296 577Q268 577 248.5 575.5Q229 574 217.0 567.5Q205 561 200.0 548.0Q195 535 195 512Q195 477 211.5 461.0Q228 445 268 432L401 389Q484 361 516.0 313.0Q548 265 548 187Q548 128 534.0 89.0Q520 50 490.0 28.0Q460 6 411.0 -3.5Q362 -13 291 -13Q257 -13 194.0 -8.5Q131 -4 50 14L60 122Q119 121 162.5 119.5Q206 118 237.0 117.5Q268 117 291 117Q331 117 353.5 122.0Q376 127 385.0 142.0Q394 157 394 185Q394 209 387.5 223.5Q381 238 366.5 246.5Q352 255 327 262L187 310Q108 339 75.0 386.0Q42 433 42 510Q42 570 56.5 607.5Q71 645 101.5 666.0Q132 687 180.5 695.0Q229 703 297 703Z"
  />
</svg>
